<mxfile host="app.diagrams.net" agent="Mozilla/5.0 (Windows NT 10.0; Win64; x64) AppleWebKit/537.36 (KHTML, like Gecko) Chrome/138.0.0.0 Safari/537.36" version="28.0.7">
  <diagram name="Página-1" id="i8i6QZ54oyxCAja104YR">
    <mxGraphModel dx="1426" dy="777" grid="1" gridSize="10" guides="1" tooltips="1" connect="1" arrows="1" fold="1" page="1" pageScale="1" pageWidth="3300" pageHeight="4681" math="0" shadow="0">
      <root>
        <mxCell id="0" />
        <mxCell id="1" parent="0" />
        <mxCell id="k4KpuGvkvIvY_1fx16YU-18" value="Login" style="shape=umlFrame;whiteSpace=wrap;html=1;pointerEvents=0;" vertex="1" parent="1">
          <mxGeometry x="1070" y="450" width="780" height="430" as="geometry" />
        </mxCell>
        <mxCell id="k4KpuGvkvIvY_1fx16YU-19" value="" style="shape=umlLifeline;perimeter=lifelinePerimeter;whiteSpace=wrap;html=1;container=1;dropTarget=0;collapsible=0;recursiveResize=0;outlineConnect=0;portConstraint=eastwest;newEdgeStyle={&quot;curved&quot;:0,&quot;rounded&quot;:0};participant=umlActor;" vertex="1" parent="1">
          <mxGeometry x="1170" y="490" width="20" height="360" as="geometry" />
        </mxCell>
        <mxCell id="k4KpuGvkvIvY_1fx16YU-20" value="" style="html=1;points=[[0,0,0,0,5],[0,1,0,0,-5],[1,0,0,0,5],[1,1,0,0,-5]];perimeter=orthogonalPerimeter;outlineConnect=0;targetShapes=umlLifeline;portConstraint=eastwest;newEdgeStyle={&quot;curved&quot;:0,&quot;rounded&quot;:0};" vertex="1" parent="k4KpuGvkvIvY_1fx16YU-19">
          <mxGeometry x="5" y="80" width="10" height="250" as="geometry" />
        </mxCell>
        <mxCell id="k4KpuGvkvIvY_1fx16YU-21" value="Front End" style="shape=umlLifeline;perimeter=lifelinePerimeter;whiteSpace=wrap;html=1;container=1;dropTarget=0;collapsible=0;recursiveResize=0;outlineConnect=0;portConstraint=eastwest;newEdgeStyle={&quot;curved&quot;:0,&quot;rounded&quot;:0};" vertex="1" parent="1">
          <mxGeometry x="1410" y="490" width="100" height="360" as="geometry" />
        </mxCell>
        <mxCell id="k4KpuGvkvIvY_1fx16YU-22" value="" style="html=1;points=[[0,0,0,0,5],[0,1,0,0,-5],[1,0,0,0,5],[1,1,0,0,-5]];perimeter=orthogonalPerimeter;outlineConnect=0;targetShapes=umlLifeline;portConstraint=eastwest;newEdgeStyle={&quot;curved&quot;:0,&quot;rounded&quot;:0};" vertex="1" parent="k4KpuGvkvIvY_1fx16YU-21">
          <mxGeometry x="45" y="80" width="10" height="80" as="geometry" />
        </mxCell>
        <mxCell id="k4KpuGvkvIvY_1fx16YU-23" value="" style="html=1;points=[[0,0,0,0,5],[0,1,0,0,-5],[1,0,0,0,5],[1,1,0,0,-5]];perimeter=orthogonalPerimeter;outlineConnect=0;targetShapes=umlLifeline;portConstraint=eastwest;newEdgeStyle={&quot;curved&quot;:0,&quot;rounded&quot;:0};" vertex="1" parent="k4KpuGvkvIvY_1fx16YU-21">
          <mxGeometry x="45" y="190" width="10" height="130" as="geometry" />
        </mxCell>
        <mxCell id="k4KpuGvkvIvY_1fx16YU-24" value="Back End" style="shape=umlLifeline;perimeter=lifelinePerimeter;whiteSpace=wrap;html=1;container=1;dropTarget=0;collapsible=0;recursiveResize=0;outlineConnect=0;portConstraint=eastwest;newEdgeStyle={&quot;curved&quot;:0,&quot;rounded&quot;:0};" vertex="1" parent="1">
          <mxGeometry x="1610" y="490" width="100" height="360" as="geometry" />
        </mxCell>
        <mxCell id="k4KpuGvkvIvY_1fx16YU-25" style="edgeStyle=orthogonalEdgeStyle;rounded=0;orthogonalLoop=1;jettySize=auto;html=1;curved=0;exitX=0;exitY=0;exitDx=0;exitDy=5;exitPerimeter=0;" edge="1" parent="k4KpuGvkvIvY_1fx16YU-24" source="k4KpuGvkvIvY_1fx16YU-26">
          <mxGeometry relative="1" as="geometry">
            <mxPoint x="45.333333333333485" y="204.66666666666674" as="targetPoint" />
          </mxGeometry>
        </mxCell>
        <mxCell id="k4KpuGvkvIvY_1fx16YU-26" value="" style="html=1;points=[[0,0,0,0,5],[0,1,0,0,-5],[1,0,0,0,5],[1,1,0,0,-5]];perimeter=orthogonalPerimeter;outlineConnect=0;targetShapes=umlLifeline;portConstraint=eastwest;newEdgeStyle={&quot;curved&quot;:0,&quot;rounded&quot;:0};" vertex="1" parent="k4KpuGvkvIvY_1fx16YU-24">
          <mxGeometry x="45" y="200" width="10" height="80" as="geometry" />
        </mxCell>
        <mxCell id="k4KpuGvkvIvY_1fx16YU-27" value="" style="html=1;points=[[0,0,0,0,5],[0,1,0,0,-5],[1,0,0,0,5],[1,1,0,0,-5]];perimeter=orthogonalPerimeter;outlineConnect=0;targetShapes=umlLifeline;portConstraint=eastwest;newEdgeStyle={&quot;curved&quot;:0,&quot;rounded&quot;:0};" vertex="1" parent="k4KpuGvkvIvY_1fx16YU-24">
          <mxGeometry x="55" y="220" width="10" height="40" as="geometry" />
        </mxCell>
        <mxCell id="k4KpuGvkvIvY_1fx16YU-28" value="5. Verifica as informações" style="html=1;align=left;spacingLeft=2;endArrow=block;rounded=0;edgeStyle=orthogonalEdgeStyle;curved=0;rounded=0;" edge="1" parent="k4KpuGvkvIvY_1fx16YU-24" target="k4KpuGvkvIvY_1fx16YU-27">
          <mxGeometry relative="1" as="geometry">
            <mxPoint x="60" y="210" as="sourcePoint" />
            <Array as="points">
              <mxPoint x="90" y="230" />
            </Array>
          </mxGeometry>
        </mxCell>
        <mxCell id="k4KpuGvkvIvY_1fx16YU-29" value="1. Usuário clica no botão de login" style="html=1;verticalAlign=bottom;endArrow=block;curved=0;rounded=0;entryX=0;entryY=0;entryDx=0;entryDy=5;entryPerimeter=0;" edge="1" parent="1" source="k4KpuGvkvIvY_1fx16YU-19" target="k4KpuGvkvIvY_1fx16YU-22">
          <mxGeometry relative="1" as="geometry">
            <mxPoint x="1185" y="575" as="sourcePoint" />
            <mxPoint x="1410" y="575" as="targetPoint" />
          </mxGeometry>
        </mxCell>
        <mxCell id="k4KpuGvkvIvY_1fx16YU-30" value="2. Exibe tela de login" style="html=1;verticalAlign=bottom;endArrow=open;dashed=1;endSize=8;curved=0;rounded=0;exitX=0;exitY=1;exitDx=0;exitDy=-5;exitPerimeter=0;" edge="1" parent="1" source="k4KpuGvkvIvY_1fx16YU-22" target="k4KpuGvkvIvY_1fx16YU-19">
          <mxGeometry relative="1" as="geometry">
            <mxPoint x="1170" y="645" as="targetPoint" />
            <mxPoint x="1410" y="645" as="sourcePoint" />
          </mxGeometry>
        </mxCell>
        <mxCell id="k4KpuGvkvIvY_1fx16YU-31" value="3. Insere informações (email e senha)" style="html=1;verticalAlign=bottom;endArrow=block;curved=0;rounded=0;entryX=0;entryY=0;entryDx=0;entryDy=5;entryPerimeter=0;" edge="1" parent="1" source="k4KpuGvkvIvY_1fx16YU-19" target="k4KpuGvkvIvY_1fx16YU-23">
          <mxGeometry relative="1" as="geometry">
            <mxPoint x="1190" y="685" as="sourcePoint" />
          </mxGeometry>
        </mxCell>
        <mxCell id="k4KpuGvkvIvY_1fx16YU-32" value="7. Faz login do usuário" style="html=1;verticalAlign=bottom;endArrow=open;dashed=1;endSize=8;curved=0;rounded=0;exitX=0;exitY=1;exitDx=0;exitDy=-5;exitPerimeter=0;" edge="1" parent="1" source="k4KpuGvkvIvY_1fx16YU-23" target="k4KpuGvkvIvY_1fx16YU-20">
          <mxGeometry relative="1" as="geometry">
            <mxPoint x="1495" y="755" as="targetPoint" />
            <mxPoint x="1410" y="755" as="sourcePoint" />
          </mxGeometry>
        </mxCell>
        <mxCell id="k4KpuGvkvIvY_1fx16YU-33" value="4. Envia as informações" style="html=1;verticalAlign=bottom;endArrow=block;curved=0;rounded=0;entryX=0.5;entryY=0.071;entryDx=0;entryDy=0;entryPerimeter=0;" edge="1" parent="1" source="k4KpuGvkvIvY_1fx16YU-23" target="k4KpuGvkvIvY_1fx16YU-26">
          <mxGeometry relative="1" as="geometry">
            <mxPoint x="1740" y="725" as="sourcePoint" />
            <mxPoint x="1650" y="695" as="targetPoint" />
          </mxGeometry>
        </mxCell>
        <mxCell id="k4KpuGvkvIvY_1fx16YU-34" value="6. Retorna True" style="html=1;verticalAlign=bottom;endArrow=open;dashed=1;endSize=8;curved=0;rounded=0;exitX=0.5;exitY=0.929;exitDx=0;exitDy=0;exitPerimeter=0;" edge="1" parent="1" source="k4KpuGvkvIvY_1fx16YU-26" target="k4KpuGvkvIvY_1fx16YU-21">
          <mxGeometry relative="1" as="geometry">
            <mxPoint x="1740" y="795" as="targetPoint" />
            <mxPoint x="1650" y="755" as="sourcePoint" />
          </mxGeometry>
        </mxCell>
        <mxCell id="k4KpuGvkvIvY_1fx16YU-35" value="Usuário" style="text;strokeColor=none;fillColor=none;spacingLeft=4;spacingRight=4;overflow=hidden;rotatable=0;points=[[0,0.5],[1,0.5]];portConstraint=eastwest;fontSize=12;whiteSpace=wrap;html=1;" vertex="1" parent="1">
          <mxGeometry x="1145" y="460" width="70" height="30" as="geometry" />
        </mxCell>
        <mxCell id="k4KpuGvkvIvY_1fx16YU-36" value="Fluxo principal: Login" style="text;strokeColor=none;fillColor=none;spacingLeft=4;spacingRight=4;overflow=hidden;rotatable=0;points=[[0,0.5],[1,0.5]];portConstraint=eastwest;fontSize=24;whiteSpace=wrap;html=1;fontStyle=1" vertex="1" parent="1">
          <mxGeometry x="1328.13" y="380" width="263.75" height="30" as="geometry" />
        </mxCell>
      </root>
    </mxGraphModel>
  </diagram>
</mxfile>
